<?xml version="1.0" encoding="utf-8"?>
<!-- Generator: Adobe Illustrator 19.2.1, SVG Export Plug-In . SVG Version: 6.00 Build 0)  -->
<svg version="1.1" id="Calque_1" xmlns="http://www.w3.org/2000/svg" xmlns:xlink="http://www.w3.org/1999/xlink" x="0px" y="0px"
	 viewBox="0 0 57 45" enable-background="new 0 0 57 45" xml:space="preserve">
<g>
	<g>
		<g>
			<g>
				<g>
					<path fill="#E5AE41" d="M29.2,30.2h-3.1v-1.7h3.1c0.5,0,0.8-0.4,0.8-0.8c0-0.5-0.4-0.8-0.8-0.8h-1.4c-1.4,0-2.5-1.1-2.5-2.5
						c0-1.5,1.1-2.6,2.5-2.6h2.9v1.7h-2.9c-0.5,0-0.8,0.4-0.8,0.8c0,0.5,0.4,0.9,0.8,0.9h1.4c1.4,0,2.5,1.1,2.5,2.5
						C31.7,29.1,30.6,30.2,29.2,30.2"/>
				</g>
			</g>
			<g>
				<rect x="27.9" y="20" fill="#E5AE41" width="1.7" height="2.5"/>
			</g>
			<g>
				<rect x="27.9" y="29.4" fill="#E5AE41" width="1.7" height="2.5"/>
			</g>
			<g>
				<path fill="#222221" d="M38.9,36.5H18.1c-1.7,0-2.2-2.2-2.3-2.4l0-0.1l0-0.1c0.2-6.1,2.6-11.9,6.8-16.3l1-1.1h9.2l1,0.9
					c4.8,4.2,7.5,10.2,7.4,16.5C41.1,34.3,40.6,36.5,38.9,36.5 M17.5,33.8c0.1,0.5,0.4,1,0.6,1h20.8c0.2,0,0.5-0.7,0.6-1.1
					c0.1-5.7-2.4-11.2-6.8-15.1l-0.6-0.5h-7.8l-0.5,0.6C20,22.8,17.7,28.2,17.5,33.8"/>
			</g>
			<g>
				<path fill="#222221" d="M34,15H22.9l-1.3-2.6c-0.3-0.6-0.2-1.3,0.1-1.8c0.3-0.5,0.9-0.9,1.6-0.9h10.3c0.7,0,1.3,0.3,1.6,0.9
					c0.3,0.6,0.4,1.2,0.1,1.8L34,15z M24,13.3h9l0.8-1.6c0-0.1,0-0.1,0-0.2c0,0-0.1-0.1-0.2-0.1H23.4c-0.1,0-0.1,0-0.2,0.1
					c0,0,0,0.1,0,0.2L24,13.3z"/>
			</g>
		</g>
	</g>
</g>
</svg>
