<?xml version="1.0" encoding="utf-8"?>
<!-- Generator: Adobe Illustrator 19.2.1, SVG Export Plug-In . SVG Version: 6.00 Build 0)  -->
<svg version="1.1" id="Calque_1" xmlns="http://www.w3.org/2000/svg" xmlns:xlink="http://www.w3.org/1999/xlink" x="0px" y="0px"
	 viewBox="0 0 57 45" enable-background="new 0 0 57 45" xml:space="preserve">
<g>
	<path d="M49.7,17.5C49.7,17.5,49.7,17.5,49.7,17.5c0-0.4-0.3-0.7-0.6-0.8l-21.3-7c-0.2-0.1-0.4-0.1-0.6,0l-21.6,7
		C5.2,16.8,5,17.1,5,17.5c0,0,0,0,0,0c0,0,0,0.1,0,0.1c0,0,0,0.1,0,0.1c0,0.4,0.3,0.7,0.6,0.8l8.5,2.8v7.1c0,0,0,0,0,0
		c0,0.1,0,0.1,0,0.2c0,0,0,0,0,0.1c0,0,0,0.1,0,0.1c0,0,0,0.1,0,0.1c0,0,0,0,0,0.1c0,0.1,0.1,0.1,0.1,0.1l0,0
		c3.3,3.3,8.2,5.1,13.4,5.1c0,0,0.1,0,0.1,0c0,0,0.1,0,0.1,0c5.3,0,10.2-1.9,13.4-5.1l0,0c0,0,0.1-0.1,0.1-0.1c0,0,0,0,0,0
		c0,0,0-0.1,0.1-0.1c0,0,0-0.1,0-0.1c0,0,0-0.1,0-0.1c0-0.1,0-0.1,0-0.2c0,0,0,0,0,0v-7.6l2.9-0.9l1.9-0.6l2.6-0.8
		C49.5,18.4,49.7,18,49.7,17.5C49.7,17.6,49.7,17.5,49.7,17.5z M39.9,28c-2.9,2.7-7.2,4.3-11.8,4.3c0,0-0.1,0-0.1,0c0,0-0.1,0-0.1,0
		c-4.6,0-8.9-1.6-11.8-4.3v-6.1l10.9,3.6c0.1,0,0.2,0,0.3,0c0.1,0,0.2,0,0.3,0l12.4-4V28z M27.2,23.7L8.9,17.6l18.6-6.1l18.3,6
		L27.2,23.7z"/>
	
		<ellipse transform="matrix(0.9216 -0.3881 0.3881 0.9216 -7.0976 19.8655)" fill="#E5AE41" cx="45.6" cy="27.5" rx="1.9" ry="1.9"/>
	<path fill="#E5AE41" d="M45.6,32.7L45.6,32.7c-0.5,0-0.9-0.4-0.9-0.9V20.7c0-0.5,0.4-0.9,0.9-0.9h0c0.5,0,0.9,0.4,0.9,0.9v11.1
		C46.5,32.3,46.1,32.7,45.6,32.7z"/>
	<polygon fill="#E5AE41" points="46.5,21.1 44.6,21.1 44.6,20 46.5,19.4 	"/>
</g>
</svg>
