<?xml version="1.0" encoding="UTF-8" standalone="no"?>
<!-- Generator: Adobe Illustrator 19.2.1, SVG Export Plug-In . SVG Version: 6.00 Build 0)  -->

<svg
   xmlns:dc="http://purl.org/dc/elements/1.1/"
   xmlns:cc="http://creativecommons.org/ns#"
   xmlns:rdf="http://www.w3.org/1999/02/22-rdf-syntax-ns#"
   xmlns:svg="http://www.w3.org/2000/svg"
   xmlns="http://www.w3.org/2000/svg"
   xmlns:sodipodi="http://sodipodi.sourceforge.net/DTD/sodipodi-0.dtd"
   xmlns:inkscape="http://www.inkscape.org/namespaces/inkscape"
   version="1.1"
   id="Calque_1"
   x="0px"
   y="0px"
   viewBox="0 0 57 45"
   enable-background="new 0 0 57 45"
   xml:space="preserve"
   inkscape:version="0.91 r13725"
   sodipodi:docname="medal-black-orange.svg"><metadata
     id="metadata21"><rdf:RDF><cc:Work
         rdf:about=""><dc:format>image/svg+xml</dc:format><dc:type
           rdf:resource="http://purl.org/dc/dcmitype/StillImage" /></cc:Work></rdf:RDF></metadata><defs
     id="defs19" /><sodipodi:namedview
     pagecolor="#ffffff"
     bordercolor="#666666"
     borderopacity="1"
     objecttolerance="10"
     gridtolerance="10"
     guidetolerance="10"
     inkscape:pageopacity="0"
     inkscape:pageshadow="2"
     inkscape:window-width="1152"
     inkscape:window-height="615"
     id="namedview17"
     showgrid="false"
     inkscape:zoom="5.2444444"
     inkscape:cx="19.347458"
     inkscape:cy="22.5"
     inkscape:window-x="20"
     inkscape:window-y="43"
     inkscape:window-maximized="0"
     inkscape:current-layer="Calque_1" /><path
     style="fill:#e5ae41;fill-opacity:1"
     d="M 27.313624,25.912415 C 21.321141,24.382056 18.838844,17.2976 22.59159,12.435779 c 2.195582,-2.8444577 6.077327,-4.0114903 9.701244,-2.916645 3.804328,1.149351 6.301509,4.865475 5.988641,8.911866 -0.276862,3.58073 -3.066808,6.730511 -6.672051,7.53258 -1.757354,0.390965 -2.604026,0.38088 -4.2958,-0.05117 z"
     id="path3401"
     inkscape:connector-curvature="0" /><path
     d="m 23.8,34.3 -0.7,-3 c -0.1,-0.2 -0.2,-0.4 -0.4,-0.5 -0.1,-0.1 -0.2,-0.1 -0.3,-0.1 -0.1,0 -0.2,0 -0.3,0.1 L 19.2,32 22.8,24.5 C 22.4,24.1 22,23.7 21.6,23.3 l -4.8,10 c -0.1,0.3 -0.1,0.7 0.1,0.9 0.2,0.2 0.6,0.3 0.9,0.2 l 3.9,-1.7 1,4.2 c 0.1,0.3 0.4,0.6 0.7,0.6 0,0 0.1,0 0.1,0 0.3,0 0.6,-0.2 0.7,-0.4 l 4.7,-9.6 c -0.5,-0.1 -1,-0.3 -1.5,-0.5 l -3.6,7.3 z"
     id="path7"
     inkscape:connector-curvature="0"
     style="fill:#222221" /><path
     d="M 42.5,33.2 37.6,23.1 c -0.4,0.4 -0.7,0.9 -1.1,1.3 l 3.7,7.6 -2.8,-1.2 c -0.2,-0.1 -0.5,-0.1 -0.7,0 -0.2,0.1 -0.4,0.3 -0.4,0.5 l -0.7,3 -3.6,-7.4 c -0.5,0.2 -1.1,0.2 -1.6,0.3 l 4.7,9.7 c 0.1,0.3 0.4,0.4 0.7,0.4 0,0 0.1,0 0.1,0 0.3,0 0.6,-0.3 0.7,-0.6 l 1,-4.2 3.9,1.7 c 0.1,0 0.2,0.1 0.3,0.1 l 0,0 c 0.4,0 0.8,-0.4 0.8,-0.8 0,0 -0.1,-0.2 -0.1,-0.3 z"
     id="path9"
     inkscape:connector-curvature="0"
     style="fill:#222221" /><path
     d="m 29.5,11 c -3.6,0 -6.6,2.9 -6.6,6.6 0,3.6 2.9,6.6 6.6,6.6 3.6,0 6.6,-2.9 6.6,-6.6 0,-3.7 -2.9,-6.6 -6.6,-6.6 z m 0,11.5 c -2.7,0 -5,-2.2 -5,-5 0,-2.7 2.2,-5 5,-5 2.7,0 5,2.2 5,5 0,2.8 -2.2,5 -5,5 z"
     id="path13"
     inkscape:connector-curvature="0"
     style="fill:#ffffff" /><path
     d="m 29.5,7.6 c -5.5,0 -9.9,4.4 -9.9,9.9 0,5.5 4.4,9.9 9.9,9.9 5.5,0 9.9,-4.4 9.9,-9.9 0,-5.4 -4.4,-9.9 -9.9,-9.9 z m 0,18.3 c -4.6,0 -8.3,-3.7 -8.3,-8.3 0,-4.6 3.7,-8.3 8.3,-8.3 4.6,0 8.3,3.7 8.3,8.3 0.1,4.6 -3.7,8.3 -8.3,8.3 z"
     id="path15"
     inkscape:connector-curvature="0"
     style="fill:#222221" /><path
     d="m 72.076271,14.316102 c -5.5,0 -9.9,4.4 -9.9,9.9 0,5.5 4.4,9.9 9.9,9.9 5.5,0 9.9,-4.4 9.9,-9.9 0,-5.4 -4.4,-9.9 -9.9,-9.9 z m 0,18.3 c -4.6,0 -8.3,-3.7 -8.3,-8.3 0,-4.6 3.7,-8.3 8.3,-8.3 4.6,0 8.3,3.7 8.3,8.3 0.1,4.6 -3.7,8.3 -8.3,8.3 z"
     id="path15-5"
     inkscape:connector-curvature="0"
     style="fill:#222221;fill-opacity:0" /></svg>