<?xml version="1.0" encoding="utf-8"?>
<!-- Generator: Adobe Illustrator 19.2.1, SVG Export Plug-In . SVG Version: 6.00 Build 0)  -->
<svg version="1.1" id="Calque_1" xmlns="http://www.w3.org/2000/svg" xmlns:xlink="http://www.w3.org/1999/xlink" x="0px" y="0px"
	 viewBox="0 0 57 45" enable-background="new 0 0 57 45" xml:space="preserve">
<g>
	<g>
		<path fill="#222221" d="M23.8,34.3l-0.7-3c-0.1-0.2-0.2-0.4-0.4-0.5c-0.1-0.1-0.2-0.1-0.3-0.1c-0.1,0-0.2,0-0.3,0.1L19.2,32
			l3.6-7.5c-0.4-0.4-0.8-0.8-1.2-1.2l-4.8,10c-0.1,0.3-0.1,0.7,0.1,0.9c0.2,0.2,0.6,0.3,0.9,0.2l3.9-1.7l1,4.2
			c0.1,0.3,0.4,0.6,0.7,0.6c0,0,0.1,0,0.1,0c0.3,0,0.6-0.2,0.7-0.4l4.7-9.6c-0.5-0.1-1-0.3-1.5-0.5L23.8,34.3z"/>
		<path fill="#222221" d="M42.5,33.2l-4.9-10.1c-0.4,0.4-0.7,0.9-1.1,1.3l3.7,7.6l-2.8-1.2c-0.2-0.1-0.5-0.1-0.7,0
			c-0.2,0.1-0.4,0.3-0.4,0.5l-0.7,3L32,26.9c-0.5,0.2-1.1,0.2-1.6,0.3l4.7,9.7c0.1,0.3,0.4,0.4,0.7,0.4c0,0,0.1,0,0.1,0
			c0.3,0,0.6-0.3,0.7-0.6l1-4.2l3.9,1.7c0.1,0,0.2,0.1,0.3,0.1h0c0.4,0,0.8-0.4,0.8-0.8C42.6,33.5,42.5,33.3,42.5,33.2z"/>
	</g>
	<g>
		<path fill="#E5AE41" d="M29.5,11c-3.6,0-6.6,2.9-6.6,6.6c0,3.6,2.9,6.6,6.6,6.6c3.6,0,6.6-2.9,6.6-6.6C36.1,13.9,33.2,11,29.5,11z
			 M29.5,22.5c-2.7,0-5-2.2-5-5c0-2.7,2.2-5,5-5c2.7,0,5,2.2,5,5C34.5,20.3,32.3,22.5,29.5,22.5z"/>
		<path fill="#222221" d="M29.5,7.6c-5.5,0-9.9,4.4-9.9,9.9c0,5.5,4.4,9.9,9.9,9.9s9.9-4.4,9.9-9.9C39.4,12.1,35,7.6,29.5,7.6z
			 M29.5,25.9c-4.6,0-8.3-3.7-8.3-8.3c0-4.6,3.7-8.3,8.3-8.3c4.6,0,8.3,3.7,8.3,8.3C37.9,22.2,34.1,25.9,29.5,25.9z"/>
	</g>
</g>
</svg>
