<?xml version="1.0" encoding="utf-8"?>
<!-- Generator: Adobe Illustrator 19.2.1, SVG Export Plug-In . SVG Version: 6.00 Build 0)  -->
<svg version="1.1" id="Calque_1" xmlns="http://www.w3.org/2000/svg" xmlns:xlink="http://www.w3.org/1999/xlink" x="0px" y="0px"
	 viewBox="0 0 57 45" enable-background="new 0 0 57 45" xml:space="preserve">
<g>
	<path fill="#222221" d="M40.4,10.8h-2.8v1.8h2.8c0.4,0,0.8,0.4,0.8,0.8v4.8H15.7v-4.8c0-0.4,0.4-0.8,0.8-0.8h3.4V15
		c0,0.5,0.4,0.9,0.9,0.9c0.5,0,0.9-0.4,0.9-0.9v-2.4h0v-1.8h0V8.9c0-0.5-0.4-0.9-0.9-0.9c-0.5,0-0.9,0.4-0.9,0.9v1.9h-3.4
		c-1.4,0-2.6,1.2-2.6,2.6v21.4c0,1.4,1.2,2.6,2.6,2.6h23.9c1.4,0,2.6-1.2,2.6-2.6V13.5C43,12,41.8,10.8,40.4,10.8z M40.4,35.6H16.5
		c-0.4,0-0.8-0.4-0.8-0.8V20.1h25.5v14.7C41.2,35.3,40.8,35.6,40.4,35.6z"/>
	<path fill="#222221" d="M33.6,15c0,0.5,0.4,0.9,0.9,0.9c0.5,0,0.9-0.4,0.9-0.9V8.9c0-0.5-0.4-0.9-0.9-0.9c-0.5,0-0.9,0.4-0.9,0.9
		v1.9h-3v1.8h3V15z"/>
	<path fill="#222221" d="M26.8,15c0,0.5,0.4,0.9,0.9,0.9c0.5,0,0.9-0.4,0.9-0.9v-2.4h0v-1.8h0V8.9c0-0.5-0.4-0.9-0.9-0.9
		c-0.5,0-0.9,0.4-0.9,0.9v1.9h-3v1.8h3V15z"/>
	<g>
		<g>
			<rect x="19" y="26.9" fill="#E5AE41" width="2.1" height="2.1"/>
			<rect x="23.2" y="26.9" fill="#E5AE41" width="2.1" height="2.1"/>
			<rect x="27.4" y="26.9" fill="#E5AE41" width="2.1" height="2.1"/>
			<rect x="31.6" y="26.9" fill="#E5AE41" width="2.1" height="2.1"/>
			<rect x="35.8" y="26.9" fill="#E5AE41" width="2.1" height="2.1"/>
		</g>
		<g>
			<rect x="23.2" y="22.7" fill="#E5AE41" width="2.1" height="2.1"/>
			<rect x="27.4" y="22.7" fill="#E5AE41" width="2.1" height="2.1"/>
			<rect x="31.6" y="22.7" fill="#E5AE41" width="2.1" height="2.1"/>
			<rect x="35.8" y="22.7" fill="#E5AE41" width="2.1" height="2.1"/>
		</g>
		<g>
			<rect x="19" y="31" fill="#E5AE41" width="2.1" height="2.1"/>
			<rect x="23.2" y="31" fill="#E5AE41" width="2.1" height="2.1"/>
			<rect x="27.4" y="31" fill="#E5AE41" width="2.1" height="2.1"/>
			<rect x="31.6" y="31" fill="#E5AE41" width="2.1" height="2.1"/>
		</g>
	</g>
</g>
</svg>
