<?xml version="1.0" encoding="UTF-8" standalone="no"?>
<!-- Generator: Adobe Illustrator 17.1.0, SVG Export Plug-In . SVG Version: 6.00 Build 0)  -->

<svg
   xmlns:dc="http://purl.org/dc/elements/1.1/"
   xmlns:cc="http://creativecommons.org/ns#"
   xmlns:rdf="http://www.w3.org/1999/02/22-rdf-syntax-ns#"
   xmlns:svg="http://www.w3.org/2000/svg"
   xmlns="http://www.w3.org/2000/svg"
   xmlns:sodipodi="http://sodipodi.sourceforge.net/DTD/sodipodi-0.dtd"
   xmlns:inkscape="http://www.inkscape.org/namespaces/inkscape"
   version="1.1"
   id="Calque_1"
   x="0px"
   y="0px"
   viewBox="0 0 190 60"
   enable-background="new 0 0 595.28 841.89"
   xml:space="preserve"
   inkscape:version="0.48.4 r9939"
   width="100%"
   height="100%"
   sodipodi:docname="octo-academy-with-baseline-on-dark.svg"><metadata
     id="metadata3122"><rdf:RDF><cc:Work
         rdf:about=""><dc:format>image/svg+xml</dc:format><dc:type
           rdf:resource="http://purl.org/dc/dcmitype/StillImage" /></cc:Work></rdf:RDF></metadata><defs
     id="defs3120" /><sodipodi:namedview
     pagecolor="#ffffff"
     bordercolor="#666666"
     borderopacity="1"
     objecttolerance="10"
     gridtolerance="10"
     guidetolerance="10"
     inkscape:pageopacity="0"
     inkscape:pageshadow="2"
     inkscape:window-width="1920"
     inkscape:window-height="1052"
     id="namedview3118"
     showgrid="false"
     inkscape:zoom="1.016166"
     inkscape:cx="139.69337"
     inkscape:cy="263.49041"
     inkscape:window-x="1366"
     inkscape:window-y="0"
     inkscape:window-maximized="1"
     inkscape:current-layer="Calque_1" /><g
     id="g3018"
     transform="matrix(0.32669451,0,0,0.32669451,-2.237354,-107.52042)"><g
       id="g3020"><g
         id="g3022"><g
           id="g3024"><path
             d="m 314.337,335.475 c -2.798,3.915 -6.515,8.922 -9.769,12.644 -0.357,0.415 -0.729,0.797 -1.106,1.165 -0.027,0.026 -0.053,0.054 -0.08,0.08 -0.368,0.356 -0.74,0.699 -1.109,1.043 -0.084,0.078 -0.168,0.157 -0.251,0.236 -0.118,0.111 -0.236,0.223 -0.353,0.335 -0.069,0.066 -0.138,0.134 -0.207,0.201 -0.129,0.126 -0.256,0.255 -0.382,0.385 -0.051,0.053 -0.103,0.105 -0.154,0.158 -0.171,0.181 -0.338,0.366 -0.501,0.557 -0.035,0.041 -0.069,0.085 -0.103,0.127 -0.128,0.154 -0.252,0.312 -0.373,0.475 -0.049,0.066 -0.097,0.134 -0.145,0.201 -0.111,0.158 -0.219,0.322 -0.323,0.49 -0.038,0.062 -0.078,0.122 -0.116,0.186 -0.136,0.231 -0.265,0.47 -0.385,0.723 -0.019,0.041 -0.036,0.086 -0.055,0.128 -0.098,0.215 -0.19,0.44 -0.276,0.673 -0.032,0.087 -0.062,0.177 -0.092,0.266 -0.071,0.212 -0.136,0.432 -0.195,0.659 -0.023,0.089 -0.048,0.176 -0.07,0.268 -0.075,0.318 -0.141,0.648 -0.193,1 -0.005,0.036 -0.008,0.076 -0.013,0.113 -0.044,0.318 -0.077,0.653 -0.101,1.001 -0.008,0.12 -0.013,0.244 -0.019,0.367 -0.014,0.292 -0.02,0.597 -0.019,0.911 0,0.13 -10e-4,0.258 0.002,0.392 0.01,0.444 0.03,0.904 0.071,1.393 0.797,8.654 1.297,12.436 0.517,15.484 -0.174,0.492 0.157,0.689 0.326,0.797 l 0,0 11.304,-19.524 c -1.612,-0.867 -2.425,-3.436 -1.35,-5.139 1.098,-1.739 3.868,-1.962 6.187,-0.498 2.319,1.464 3.308,4.061 2.21,5.8 -1.036,1.641 -3.07,2.148 -5.299,0.946 l -12.217,18.929 c 0.282,0.169 0.519,0.258 0.839,-0.07 2.372,-2.059 5.973,-3.294 14.055,-6.433 0.456,-0.182 0.875,-0.369 1.276,-0.558 0.12,-0.056 0.233,-0.114 0.349,-0.171 0.282,-0.14 0.552,-0.281 0.808,-0.424 0.107,-0.06 0.215,-0.119 0.318,-0.179 0.302,-0.178 0.587,-0.357 0.853,-0.54 0.029,-0.02 0.062,-0.039 0.091,-0.059 0.291,-0.203 0.557,-0.411 0.808,-0.62 0.072,-0.06 0.138,-0.121 0.207,-0.181 0.177,-0.156 0.346,-0.313 0.504,-0.471 0.066,-0.066 0.132,-0.132 0.195,-0.199 0.171,-0.181 0.331,-0.365 0.48,-0.549 0.028,-0.035 0.06,-0.07 0.088,-0.105 0.173,-0.221 0.33,-0.445 0.476,-0.67 0.038,-0.058 0.072,-0.117 0.108,-0.176 0.107,-0.174 0.209,-0.349 0.304,-0.526 0.036,-0.066 0.071,-0.133 0.105,-0.199 0.1,-0.198 0.195,-0.397 0.282,-0.598 0.014,-0.031 0.029,-0.063 0.043,-0.094 0.105,-0.246 0.202,-0.494 0.292,-0.744 0.006,-0.018 0.012,-0.036 0.019,-0.054 0.088,-0.246 0.172,-0.494 0.251,-0.743 10e-4,-0.003 0.002,-0.007 0.003,-0.01 0.095,-0.299 0.187,-0.6 0.276,-0.902 0.148,-0.509 0.295,-1.022 0.457,-1.536 0.006,-0.02 0.013,-0.039 0.02,-0.059 0.163,-0.511 0.341,-1.025 0.557,-1.538 1.856,-4.534 4.634,-10.036 6.872,-14.275 l -16.297,-10.289 z"
             id="path3026"
             inkscape:connector-curvature="0"
             style="fill:#f8b133" /></g></g><g
         id="g3028"><path
           clip-rule="evenodd"
           d="m 273.466,405.435 c -4.133,0 -7.477,3.362 -7.477,7.511 0,4.143 3.345,7.507 7.477,7.507 4.128,0 7.48,-3.364 7.475,-7.513 0.004,-4.143 -3.347,-7.505 -7.475,-7.505 z m 0,13.245 c -3.159,0.006 -5.716,-2.565 -5.716,-5.734 0,-3.17 2.557,-5.74 5.716,-5.74 3.154,0 5.713,2.564 5.713,5.734 0,3.175 -2.559,5.74 -5.713,5.74 z"
           id="path3030"
           inkscape:connector-curvature="0"
           style="fill:#ffffff;fill-rule:evenodd" /><g
           id="g3032"><path
             clip-rule="evenodd"
             d="m 291.702,412.872 c 0,10.213 -8.293,18.518 -18.485,18.518 -10.196,0 -18.485,-8.305 -18.485,-18.518 0,-10.215 8.289,-18.526 18.485,-18.526 10.191,0 18.485,8.311 18.485,18.526 z m -18.486,-31.979 c -17.596,0 -31.911,14.345 -31.911,31.979 0,17.631 14.315,31.977 31.911,31.977 17.598,0 31.913,-14.345 31.913,-31.977 10e-4,-17.634 -14.314,-31.979 -31.913,-31.979 z"
             id="path3034"
             inkscape:connector-curvature="0"
             style="fill:#ffffff;fill-rule:evenodd" /></g><path
           d="m 273.515,409.233 c 2.044,0 3.705,1.661 3.7,3.707 0.005,2.053 -1.656,3.712 -3.7,3.712 -2.046,0 -3.702,-1.658 -3.702,-3.712 0,-2.046 1.656,-3.707 3.702,-3.707 z"
           id="path3036"
           inkscape:connector-curvature="0"
           style="fill:#ffffff" /></g><g
         id="g3038"><g
           id="g3040"><path
             d="m 223.708,395.809 c 1.17,1.17 1.17,3.068 0,4.239 -1.174,1.174 -3.068,1.174 -4.237,0 -1.174,-1.17 -1.174,-3.068 0,-4.239 1.169,-1.169 3.064,-1.169 4.237,0 z"
             id="path3042"
             inkscape:connector-curvature="0"
             style="fill:#f8b133" /><path
             d="m 211.756,407.706 c 1.17,1.169 1.17,3.068 0,4.237 -1.169,1.174 -3.067,1.174 -4.237,0 -1.169,-1.169 -1.169,-3.068 0,-4.237 1.17,-1.17 3.068,-1.17 4.237,0 z"
             id="path3044"
             inkscape:connector-curvature="0"
             style="fill:#f8b133" /></g><g
           id="g3046"><polygon
             points="157.009,435.424 165.963,435.424 165.963,403.984 181.269,403.984 181.269,394.883 141.7,394.883 141.7,403.984 157.009,403.984 "
             id="polygon3048"
             style="fill:#ffffff" /></g><g
           id="g3050"><path
             clip-rule="evenodd"
             d="m 122.49,426.978 c -6.477,0 -11.742,-5.277 -11.742,-11.764 0,-6.489 5.265,-11.769 11.742,-11.769 2.778,0 5.335,0.975 7.344,2.602 l 6.053,-6.055 c -3.571,-3.167 -8.264,-5.093 -13.398,-5.093 -11.178,0 -20.272,9.113 -20.272,20.315 0,11.2 9.094,20.306 20.272,20.306 5.101,0 9.767,-1.907 13.334,-5.03 l -6.056,-6.055 c -2.001,1.591 -4.53,2.543 -7.277,2.543 z"
             id="path3052"
             inkscape:connector-curvature="0"
             style="fill:#ffffff;fill-rule:evenodd" /></g><g
           id="g3054"><path
             clip-rule="evenodd"
             d="m 76.04,410.488 c -2.624,0 -4.749,2.137 -4.749,4.773 0,2.633 2.125,4.768 4.749,4.768 2.624,0 4.753,-2.136 4.748,-4.772 0.004,-2.632 -2.124,-4.769 -4.748,-4.769 z m 0,8.416 c -2.006,0.005 -3.632,-1.628 -3.632,-3.643 0,-2.014 1.626,-3.646 3.632,-3.646 2.006,0 3.63,1.628 3.63,3.642 0,2.018 -1.625,3.647 -3.63,3.647 z"
             id="path3056"
             inkscape:connector-curvature="0"
             style="fill:#ffffff;fill-rule:evenodd" /><g
             id="g3058"><path
               clip-rule="evenodd"
               d="m 87.626,415.213 c 0,6.487 -5.269,11.764 -11.746,11.764 -6.477,0 -11.742,-5.277 -11.742,-11.764 0,-6.489 5.265,-11.769 11.742,-11.769 6.477,0 11.746,5.281 11.746,11.769 z M 75.881,394.898 c -11.178,0 -20.272,9.113 -20.272,20.315 0,11.2 9.094,20.306 20.272,20.306 11.183,0 20.276,-9.106 20.276,-20.306 -10e-4,-11.202 -9.093,-20.315 -20.276,-20.315 z"
               id="path3060"
               inkscape:connector-curvature="0"
               style="fill:#ffffff;fill-rule:evenodd" /></g><path
             d="m 76.07,412.904 c 1.3,0 2.356,1.054 2.351,2.354 0.005,1.304 -1.051,2.358 -2.351,2.358 -1.3,0 -2.351,-1.054 -2.351,-2.358 0,-1.3 1.051,-2.354 2.351,-2.354 z"
             id="path3062"
             inkscape:connector-curvature="0"
             style="fill:#ffffff" /></g><g
           id="g3064"><g
             id="g3066"><path
               clip-rule="evenodd"
               d="m 204.3,394.898 c -11.178,0 -20.272,9.113 -20.272,20.315 0,11.2 9.094,20.306 20.272,20.306 11.178,0 20.276,-9.106 20.276,-20.306 0,-11.202 -9.097,-20.315 -20.276,-20.315 z m 0,32.08 c -6.473,0 -11.742,-5.281 -11.742,-11.764 0,-6.489 5.269,-11.769 11.742,-11.769 6.477,0 11.746,5.281 11.746,11.769 0,6.483 -5.269,11.764 -11.746,11.764 z"
               id="path3068"
               inkscape:connector-curvature="0"
               style="fill:#ffffff;fill-rule:evenodd" /></g></g></g><g
         id="g3070"><path
           d="m 341.74,419.898 v 6.776 c -3.02,1.725 -5.948,2.587 -8.786,2.587 -3.881,0 -7.282,-1.458 -10.198,-4.375 -2.917,-2.916 -4.375,-6.294 -4.375,-10.13 0,-4.359 1.452,-7.973 4.358,-10.845 2.906,-2.872 6.549,-4.308 10.93,-4.308 2.61,0 5.3,0.681 8.071,2.043 v 6.606 c -2.975,-1.907 -5.789,-2.861 -8.445,-2.861 -2.452,0 -4.597,0.863 -6.436,2.589 -1.839,1.725 -2.758,3.746 -2.758,6.061 0,2.611 0.862,4.807 2.587,6.589 1.725,1.782 3.836,2.673 6.334,2.673 2.542,0 5.448,-1.135 8.718,-3.405 z"
           id="path3072"
           inkscape:connector-curvature="0"
           style="fill:#ffffff" /><path
           d="m 372.555,400.387 h 5.925 v 28.092 h -5.925 v -5.584 c -2.883,4.245 -6.458,6.367 -10.726,6.367 -3.7,0 -6.861,-1.452 -9.484,-4.358 -2.621,-2.906 -3.933,-6.436 -3.933,-10.59 0,-3.927 1.323,-7.361 3.966,-10.301 2.645,-2.94 5.749,-4.409 9.313,-4.409 2.202,0 4.291,0.602 6.266,1.804 1.974,1.203 3.507,2.77 4.596,4.699 v -5.72 z m 0.817,14.131 c 0,-2.565 -0.921,-4.762 -2.763,-6.589 -1.841,-1.827 -4.048,-2.742 -6.618,-2.742 -2.501,0 -4.685,0.908 -6.55,2.724 -1.865,1.817 -2.797,3.95 -2.797,6.402 0,2.656 0.909,4.915 2.729,6.776 1.819,1.862 4.025,2.793 6.618,2.793 2.57,0 4.776,-0.925 6.618,-2.776 1.842,-1.849 2.763,-4.046 2.763,-6.588 z"
           id="path3074"
           inkscape:connector-curvature="0"
           style="fill:#ffffff" /><path
           d="m 412.325,384.28 h 5.856 v 44.199 h -5.788 v -5.857 c -2.796,4.427 -6.456,6.64 -10.98,6.64 -3.66,0 -6.798,-1.464 -9.412,-4.393 -2.614,-2.928 -3.921,-6.446 -3.921,-10.555 0,-4.018 1.33,-7.474 3.989,-10.368 2.66,-2.895 5.832,-4.342 9.514,-4.342 2.205,0 4.261,0.612 6.172,1.838 1.909,1.226 3.432,2.827 4.57,4.802 V 384.28 z m 0.681,30.101 c 0,-2.52 -0.921,-4.704 -2.763,-6.555 -1.841,-1.85 -4.036,-2.774 -6.584,-2.774 -2.638,0 -4.872,0.902 -6.703,2.707 -1.831,1.804 -2.746,4.013 -2.746,6.623 0,2.498 0.932,4.683 2.797,6.555 1.864,1.873 4.036,2.809 6.516,2.809 2.638,0 4.878,-0.907 6.719,-2.724 1.843,-1.816 2.764,-4.03 2.764,-6.641 z"
           id="path3076"
           inkscape:connector-curvature="0"
           style="fill:#ffffff" /><path
           d="M 456.693,415.573 H 432.72 c 0.522,2.883 1.708,4.989 3.559,6.317 1.85,1.328 3.865,1.993 6.044,1.993 3.359,0 6.175,-1.397 8.445,-4.188 l 4.324,3.269 c -3.246,4.2 -7.593,6.299 -13.041,6.299 -4.177,0 -7.673,-1.43 -10.488,-4.29 -2.816,-2.861 -4.222,-6.413 -4.222,-10.658 0,-3.973 1.424,-7.417 4.273,-10.334 2.848,-2.916 6.328,-4.375 10.437,-4.375 4.04,0 7.502,1.481 10.386,4.443 2.882,2.96 4.301,6.803 4.256,11.524 z m -23.36,-4.733 h 17.162 c -1.907,-3.859 -4.722,-5.788 -8.445,-5.788 -4.064,0 -6.969,1.93 -8.717,5.788 z"
           id="path3078"
           inkscape:connector-curvature="0"
           style="fill:#ffffff" /><path
           d="m 464.353,428.479 v -28.092 h 5.856 v 4.324 c 1.384,-1.771 2.708,-3.064 3.968,-3.881 1.26,-0.817 2.707,-1.226 4.342,-1.226 2.133,0 3.807,0.466 5.022,1.397 1.215,0.931 2.242,2.417 3.082,4.46 1.482,-2.043 2.911,-3.529 4.29,-4.46 1.379,-0.931 2.98,-1.397 4.803,-1.397 2.234,0 4.16,0.834 5.778,2.502 1.617,1.669 2.427,3.65 2.427,5.943 v 20.431 h -5.925 v -18.9 c 0,-3.109 -1.537,-4.665 -4.612,-4.665 -1.753,0 -3.239,0.795 -4.458,2.384 -1.219,1.589 -1.827,3.552 -1.827,5.891 v 15.288 h -5.925 v -18.115 c 0,-3.678 -1.51,-5.516 -4.529,-5.516 -1.793,0 -3.315,0.749 -4.562,2.247 -1.249,1.498 -1.873,3.349 -1.873,5.55 v 15.834 h -5.857 z"
           id="path3080"
           inkscape:connector-curvature="0"
           style="fill:#ffffff" /><path
           d="m 509.605,400.387 h 6.72 l 10.19,15.262 7.045,-15.262 h 6.111 l -18.977,41.27 h -6.187 l 9.277,-20.095 -14.179,-21.175 z"
           id="path3082"
           inkscape:connector-curvature="0"
           style="fill:#ffffff" /></g><g
         id="g3084"><g
           id="g3086"><path
             d="m 291.878,375.76 c 0,21.57 0,43.14 0,64.71 0,0.759 7.711,3.685 8.395,4.002 0.612,0.284 8.473,3.294 8.473,3.833 0,-21.57 0,-43.14 0,-64.71 0,-0.759 -7.711,-3.685 -8.395,-4.002 -0.612,-0.284 -8.473,-3.294 -8.473,-3.833 l 0,0 z"
             id="path3088"
             inkscape:connector-curvature="0"
             style="fill:#ffffff" /></g></g></g><g
       id="g3090"><path
         d="m 167.603,479.39 h 2.617 v 17.93 h 6.314 v 2.798 h -8.931 V 479.39 z"
         id="path3092"
         inkscape:connector-curvature="0"
         style="fill:#ffffff" /><path
         d="m 195.229,493.952 h -10.711 c 0.233,1.378 0.763,2.383 1.59,3.019 0.826,0.634 1.727,0.951 2.7,0.951 1.501,0 2.759,-0.667 3.773,-2.001 l 1.932,1.562 c -1.451,2.007 -3.393,3.01 -5.827,3.01 -1.866,0 -3.429,-0.683 -4.686,-2.05 -1.258,-1.367 -1.887,-3.064 -1.887,-5.093 0,-1.898 0.636,-3.544 1.909,-4.938 1.273,-1.394 2.828,-2.091 4.664,-2.091 1.805,0 3.352,0.707 4.64,2.124 1.289,1.415 1.924,3.251 1.903,5.507 z m -10.437,-2.262 h 7.668 c -0.852,-1.844 -2.11,-2.766 -3.773,-2.766 -1.816,0 -3.114,0.923 -3.895,2.766 z"
         id="path3094"
         inkscape:connector-curvature="0"
         style="fill:#ffffff" /><path
         d="m 212.586,486.695 h 2.647 v 13.423 h -2.647 v -2.668 c -1.288,2.029 -2.886,3.043 -4.793,3.043 -1.653,0 -3.066,-0.694 -4.237,-2.083 -1.171,-1.388 -1.757,-3.075 -1.757,-5.06 0,-1.876 0.59,-3.517 1.772,-4.922 1.182,-1.404 2.569,-2.107 4.161,-2.107 0.984,0 1.917,0.288 2.8,0.862 0.882,0.575 1.567,1.324 2.054,2.245 v -2.733 z m 0.365,6.753 c 0,-1.225 -0.412,-2.275 -1.235,-3.148 -0.823,-0.873 -1.809,-1.31 -2.957,-1.31 -1.118,0 -2.094,0.434 -2.927,1.302 -0.833,0.868 -1.25,1.887 -1.25,3.059 0,1.269 0.406,2.349 1.219,3.238 0.813,0.89 1.799,1.334 2.957,1.334 1.148,0 2.134,-0.442 2.957,-1.326 0.824,-0.885 1.236,-1.934 1.236,-3.149 z"
         id="path3096"
         inkscape:connector-curvature="0"
         style="fill:#ffffff" /><path
         d="m 225.895,486.695 v 2.766 c 0.588,-1.106 1.164,-1.906 1.727,-2.4 0.563,-0.493 1.296,-0.74 2.199,-0.74 0.253,0 0.619,0.065 1.095,0.195 l -0.806,2.831 c -0.507,-0.108 -0.842,-0.163 -1.004,-0.163 -0.893,0 -1.641,0.334 -2.244,1 -0.603,0.668 -0.905,1.5 -0.905,2.498 v 7.436 h -2.647 v -13.423 h 2.585 z"
         id="path3098"
         inkscape:connector-curvature="0"
         style="fill:#ffffff" /><path
         d="m 237.196,500.118 v -13.423 h 2.587 v 2.229 c 0.761,-0.9 1.451,-1.559 2.069,-1.976 0.619,-0.418 1.308,-0.627 2.07,-0.627 1.135,0 2.107,0.402 2.913,1.204 0.807,0.803 1.21,1.768 1.21,2.896 v 9.697 h -2.648 v -8.867 c 0,-0.726 -0.22,-1.328 -0.662,-1.806 -0.441,-0.477 -1.002,-0.716 -1.681,-0.716 -0.883,0 -1.643,0.399 -2.282,1.195 -0.639,0.798 -0.959,1.761 -0.959,2.888 v 7.305 h -2.617 z"
         id="path3100"
         inkscape:connector-curvature="0"
         style="fill:#ffffff" /><path
         d="m 266.477,479.39 h 11.853 v 2.831 h -4.625 v 17.897 h -2.617 v -17.897 h -4.61 v -2.831 z"
         id="path3102"
         inkscape:connector-curvature="0"
         style="fill:#ffffff" /><path
         d="m 281.598,493.35 c 0,-1.833 0.677,-3.463 2.031,-4.89 1.354,-1.426 2.908,-2.139 4.663,-2.139 1.806,0 3.383,0.702 4.732,2.107 1.349,1.405 2.023,3.046 2.023,4.922 0,1.887 -0.662,3.549 -1.985,4.987 -1.324,1.437 -2.853,2.155 -4.587,2.155 -1.857,0 -3.467,-0.71 -4.831,-2.131 -1.364,-1.42 -2.046,-3.091 -2.046,-5.011 z m 10.893,0.009 c 0,-1.141 -0.406,-2.133 -1.217,-2.976 -0.812,-0.842 -1.775,-1.263 -2.891,-1.263 -1.147,0 -2.132,0.426 -2.96,1.279 -0.826,0.854 -1.24,1.872 -1.24,3.057 0,1.129 0.419,2.119 1.255,2.966 0.837,0.848 1.818,1.272 2.944,1.272 1.095,0 2.054,-0.434 2.876,-1.304 0.823,-0.869 1.233,-1.88 1.233,-3.031 z"
         id="path3104"
         inkscape:connector-curvature="0"
         style="fill:#ffffff" /><path
         d="m 329.883,480.106 v 3.205 c -2.09,-1.095 -4.012,-1.643 -5.767,-1.643 -2.252,0 -4.149,0.778 -5.69,2.333 -1.542,1.555 -2.313,3.465 -2.313,5.729 0,2.309 0.789,4.235 2.366,5.779 1.577,1.544 3.553,2.316 5.926,2.316 1.725,0 3.55,-0.58 5.478,-1.741 v 3.238 c -1.755,0.998 -3.657,1.497 -5.706,1.497 -3.003,0 -5.569,-1.087 -7.699,-3.26 -2.13,-2.173 -3.195,-4.793 -3.195,-7.861 0,-3.013 1.047,-5.592 3.142,-7.739 2.095,-2.146 4.618,-3.219 7.57,-3.219 1.896,-0.001 3.859,0.455 5.888,1.366 z"
         id="path3106"
         inkscape:connector-curvature="0"
         style="fill:#ffffff" /><path
         d="m 335.935,479 h 2.647 v 9.892 c 0.73,-0.9 1.413,-1.553 2.047,-1.961 0.634,-0.406 1.408,-0.61 2.321,-0.61 1.064,0 1.985,0.437 2.761,1.31 0.777,0.873 1.165,1.917 1.165,3.132 v 9.355 h -2.648 v -8.558 c 0,-0.846 -0.2,-1.523 -0.601,-2.034 -0.401,-0.51 -0.931,-0.765 -1.589,-0.765 -0.954,0 -1.767,0.385 -2.442,1.155 -0.675,0.771 -1.012,1.703 -1.012,2.799 v 7.403 h -2.647 V 479 z"
         id="path3108"
         inkscape:connector-curvature="0"
         style="fill:#ffffff" /><path
         d="m 364.473,486.695 h 2.648 v 13.423 h -2.648 v -2.668 c -1.288,2.029 -2.886,3.043 -4.792,3.043 -1.654,0 -3.066,-0.694 -4.238,-2.083 -1.171,-1.388 -1.757,-3.075 -1.757,-5.06 0,-1.876 0.591,-3.517 1.773,-4.922 1.182,-1.404 2.569,-2.107 4.162,-2.107 0.983,0 1.916,0.288 2.799,0.862 0.882,0.575 1.567,1.324 2.053,2.245 v -2.733 z m 0.366,6.753 c 0,-1.225 -0.412,-2.275 -1.235,-3.148 -0.823,-0.873 -1.809,-1.31 -2.957,-1.31 -1.118,0 -2.094,0.434 -2.927,1.302 -0.833,0.868 -1.249,1.887 -1.249,3.059 0,1.269 0.406,2.349 1.219,3.238 0.813,0.89 1.798,1.334 2.957,1.334 1.148,0 2.134,-0.442 2.957,-1.326 0.823,-0.885 1.235,-1.934 1.235,-3.149 z"
         id="path3110"
         inkscape:connector-curvature="0"
         style="fill:#ffffff" /><path
         d="m 374.344,500.118 v -13.423 h 2.587 v 2.229 c 0.76,-0.9 1.451,-1.559 2.069,-1.976 0.619,-0.418 1.308,-0.627 2.07,-0.627 1.135,0 2.107,0.402 2.913,1.204 0.807,0.803 1.21,1.768 1.21,2.896 v 9.697 h -2.648 v -8.867 c 0,-0.726 -0.22,-1.328 -0.662,-1.806 -0.441,-0.477 -1.002,-0.716 -1.681,-0.716 -0.883,0 -1.643,0.399 -2.282,1.195 -0.639,0.798 -0.959,1.761 -0.959,2.888 v 7.305 h -2.617 z"
         id="path3112"
         inkscape:connector-curvature="0"
         style="fill:#ffffff" /><path
         d="m 402.671,486.695 h 2.587 v 12.886 c 0,1.898 -0.611,3.512 -1.833,4.841 -1.223,1.328 -2.701,1.993 -4.435,1.993 -1.319,0 -2.531,-0.383 -3.637,-1.147 -1.106,-0.766 -1.917,-1.928 -2.435,-3.49 h 2.739 c 0.822,1.453 1.963,2.18 3.424,2.18 0.994,0 1.841,-0.382 2.541,-1.147 0.701,-0.764 1.05,-1.684 1.05,-2.757 v -2.538 c -1.278,1.985 -2.891,2.977 -4.838,2.977 -1.602,0 -3,-0.708 -4.192,-2.123 -1.192,-1.416 -1.787,-3.089 -1.787,-5.02 0,-1.93 0.581,-3.585 1.742,-4.962 1.161,-1.377 2.543,-2.066 4.146,-2.066 2.069,0 3.712,1.069 4.929,3.205 v -2.832 z m 0.365,6.688 c 0,-1.258 -0.408,-2.31 -1.225,-3.156 -0.816,-0.846 -1.828,-1.269 -3.035,-1.269 -1.106,0 -2.08,0.439 -2.922,1.318 -0.842,0.879 -1.262,1.893 -1.262,3.043 0,1.248 0.415,2.322 1.248,3.222 0.832,0.901 1.821,1.35 2.966,1.35 1.166,0 2.163,-0.439 2.99,-1.318 0.827,-0.88 1.24,-1.943 1.24,-3.19 z"
         id="path3114"
         inkscape:connector-curvature="0"
         style="fill:#ffffff" /><path
         d="m 425.064,493.952 h -10.711 c 0.233,1.378 0.763,2.383 1.59,3.019 0.826,0.634 1.726,0.951 2.701,0.951 1.5,0 2.758,-0.667 3.773,-2.001 l 1.932,1.562 c -1.451,2.007 -3.393,3.01 -5.827,3.01 -1.866,0 -3.428,-0.683 -4.686,-2.05 -1.258,-1.367 -1.887,-3.064 -1.887,-5.093 0,-1.898 0.636,-3.544 1.91,-4.938 1.273,-1.394 2.827,-2.091 4.663,-2.091 1.806,0 3.353,0.707 4.64,2.124 1.289,1.415 1.922,3.251 1.902,5.507 z m -10.437,-2.262 h 7.668 c -0.852,-1.844 -2.11,-2.766 -3.774,-2.766 -1.815,0 -3.113,0.923 -3.894,2.766 z"
         id="path3116"
         inkscape:connector-curvature="0"
         style="fill:#ffffff" /></g></g></svg>