<?xml version="1.0" encoding="UTF-8" standalone="no"?>
<!-- Generator: Adobe Illustrator 17.1.0, SVG Export Plug-In . SVG Version: 6.00 Build 0)  -->

<svg
   xmlns:dc="http://purl.org/dc/elements/1.1/"
   xmlns:cc="http://creativecommons.org/ns#"
   xmlns:rdf="http://www.w3.org/1999/02/22-rdf-syntax-ns#"
   xmlns:svg="http://www.w3.org/2000/svg"
   xmlns="http://www.w3.org/2000/svg"
   xmlns:sodipodi="http://sodipodi.sourceforge.net/DTD/sodipodi-0.dtd"
   xmlns:inkscape="http://www.inkscape.org/namespaces/inkscape"
   version="1.1"
   id="Calque_1"
   x="0px"
   y="0px"
   viewBox="0 0 190 55"
   enable-background="new 0 0 644.968 191.99"
   xml:space="preserve"
   inkscape:version="0.48.4 r9939"
   width="100%"
   height="100%"
   sodipodi:docname="octo-academy-on-dark.svg"><metadata
     id="metadata3210"><rdf:RDF><cc:Work
         rdf:about=""><dc:format>image/svg+xml</dc:format><dc:type
           rdf:resource="http://purl.org/dc/dcmitype/StillImage" /></cc:Work></rdf:RDF></metadata><defs
     id="defs3208" /><sodipodi:namedview
     pagecolor="#ffffff"
     bordercolor="#666666"
     borderopacity="1"
     objecttolerance="10"
     gridtolerance="10"
     guidetolerance="10"
     inkscape:pageopacity="0"
     inkscape:pageshadow="2"
     inkscape:window-width="1920"
     inkscape:window-height="1052"
     id="namedview3206"
     showgrid="false"
     inkscape:zoom="1"
     inkscape:cx="-58.815136"
     inkscape:cy="66.807044"
     inkscape:window-x="1366"
     inkscape:window-y="0"
     inkscape:window-maximized="1"
     inkscape:current-layer="Calque_1" /><g
     id="g3336"
     transform="matrix(0.28647326,0,0,0.28647326,-1.1087708,0)"><g
       id="g3136"><g
         id="g3138"><g
           id="g3140"><path
             style="fill:#f9b233"
             inkscape:connector-curvature="0"
             id="path3142"
             d="m 354.531,28.706 c -3.191,4.465 -7.43,10.175 -11.141,14.419 -0.407,0.473 -0.831,0.909 -1.261,1.329 -0.031,0.03 -0.061,0.062 -0.091,0.092 -0.419,0.406 -0.844,0.798 -1.265,1.189 -0.096,0.089 -0.191,0.18 -0.286,0.269 -0.135,0.127 -0.269,0.254 -0.402,0.382 -0.079,0.076 -0.157,0.152 -0.235,0.229 -0.147,0.144 -0.292,0.291 -0.435,0.439 -0.058,0.06 -0.118,0.12 -0.176,0.181 -0.195,0.206 -0.386,0.417 -0.571,0.635 -0.04,0.047 -0.078,0.097 -0.118,0.145 -0.146,0.176 -0.288,0.356 -0.425,0.542 -0.056,0.075 -0.11,0.152 -0.165,0.229 -0.127,0.18 -0.249,0.367 -0.368,0.558 -0.044,0.071 -0.089,0.14 -0.132,0.212 -0.155,0.263 -0.302,0.536 -0.439,0.825 -0.022,0.047 -0.041,0.098 -0.063,0.146 -0.112,0.245 -0.217,0.501 -0.315,0.768 -0.036,0.099 -0.07,0.201 -0.104,0.304 -0.081,0.241 -0.155,0.492 -0.223,0.752 -0.027,0.102 -0.055,0.201 -0.08,0.306 -0.085,0.363 -0.161,0.74 -0.22,1.141 -0.006,0.041 -0.009,0.087 -0.015,0.128 -0.051,0.363 -0.088,0.745 -0.116,1.142 -0.01,0.136 -0.015,0.278 -0.022,0.419 -0.016,0.334 -0.022,0.68 -0.021,1.039 0,0.148 -10e-4,0.294 0.003,0.446 0.012,0.507 0.034,1.03 0.08,1.589 0.909,9.87 1.48,14.182 0.59,17.658 -0.198,0.561 0.179,0.785 0.372,0.909 l 0,0 12.891,-22.265 c -1.838,-0.989 -2.766,-3.919 -1.539,-5.861 1.252,-1.983 4.411,-2.237 7.055,-0.567 2.644,1.67 3.773,4.631 2.52,6.614 -1.182,1.871 -3.501,2.45 -6.043,1.079 l -13.932,21.587 c 0.321,0.193 0.592,0.295 0.956,-0.08 2.705,-2.348 6.812,-3.757 16.028,-7.336 0.52,-0.208 0.998,-0.42 1.456,-0.636 0.137,-0.064 0.266,-0.13 0.398,-0.195 0.322,-0.159 0.629,-0.32 0.921,-0.483 0.122,-0.068 0.245,-0.136 0.362,-0.205 0.344,-0.203 0.67,-0.407 0.973,-0.615 0.033,-0.023 0.071,-0.045 0.104,-0.068 0.332,-0.232 0.635,-0.468 0.921,-0.707 0.082,-0.068 0.157,-0.138 0.236,-0.206 0.202,-0.178 0.394,-0.357 0.575,-0.537 0.075,-0.075 0.151,-0.151 0.223,-0.227 0.195,-0.207 0.377,-0.416 0.547,-0.626 0.032,-0.04 0.069,-0.079 0.1,-0.12 0.197,-0.252 0.376,-0.507 0.543,-0.765 0.043,-0.066 0.082,-0.134 0.123,-0.2 0.123,-0.199 0.239,-0.398 0.346,-0.6 0.041,-0.076 0.081,-0.151 0.12,-0.227 0.115,-0.226 0.222,-0.453 0.322,-0.682 0.016,-0.036 0.033,-0.071 0.049,-0.107 0.12,-0.281 0.23,-0.564 0.333,-0.848 0.007,-0.021 0.014,-0.041 0.021,-0.061 0.101,-0.281 0.196,-0.563 0.286,-0.847 0.001,-0.004 0.003,-0.008 0.004,-0.012 0.108,-0.341 0.213,-0.684 0.315,-1.029 0.169,-0.581 0.336,-1.165 0.521,-1.751 0.007,-0.022 0.015,-0.045 0.023,-0.067 0.186,-0.583 0.389,-1.168 0.635,-1.754 2.116,-5.17 5.284,-11.445 7.837,-16.279 L 354.531,28.706 z" /></g></g><g
         id="g3144"><path
           style="fill:#ffffff;fill-rule:evenodd"
           inkscape:connector-curvature="0"
           id="path3146"
           d="m 307.922,108.488 c -4.713,0 -8.527,3.834 -8.527,8.566 0,4.725 3.814,8.561 8.527,8.561 4.707,0 8.53,-3.836 8.524,-8.567 0.005,-4.726 -3.817,-8.56 -8.524,-8.56 z m 0,15.106 c -3.602,0.007 -6.518,-2.925 -6.518,-6.54 0,-3.615 2.916,-6.546 6.518,-6.546 3.597,0 6.515,2.924 6.515,6.54 0,3.62 -2.918,6.546 -6.515,6.546 z"
           clip-rule="evenodd" /><g
           id="g3148"><path
             style="fill:#ffffff;fill-rule:evenodd"
             inkscape:connector-curvature="0"
             id="path3150"
             d="m 328.718,116.969 c 0,11.647 -9.458,21.118 -21.081,21.118 -11.628,0 -21.081,-9.471 -21.081,-21.118 0,-11.649 9.453,-21.127 21.081,-21.127 11.623,0 21.081,9.478 21.081,21.127 z M 307.637,80.5 c -20.067,0 -36.391,16.36 -36.391,36.469 0,20.107 16.325,36.467 36.391,36.467 20.069,0 36.394,-16.36 36.394,-36.467 0,-20.109 -16.325,-36.469 -36.394,-36.469 z"
             clip-rule="evenodd" /></g><path
           style="fill:#ffffff"
           inkscape:connector-curvature="0"
           id="path3152"
           d="m 307.978,112.82 c 2.331,0 4.225,1.894 4.219,4.227 0.005,2.342 -1.888,4.233 -4.219,4.233 -2.334,0 -4.222,-1.891 -4.222,-4.233 0,-2.333 1.888,-4.227 4.222,-4.227 z" /></g><g
         id="g3154"><g
           id="g3156"><path
             style="fill:#f9b233"
             inkscape:connector-curvature="0"
             id="path3158"
             d="m 251.178,97.511 c 1.334,1.335 1.334,3.499 0,4.834 -1.338,1.338 -3.499,1.338 -4.832,0 -1.339,-1.335 -1.339,-3.499 0,-4.834 1.333,-1.333 3.494,-1.333 4.832,0 z" /><path
             style="fill:#f9b233"
             inkscape:connector-curvature="0"
             id="path3160"
             d="m 237.548,111.079 c 1.334,1.333 1.334,3.499 0,4.832 -1.333,1.338 -3.497,1.338 -4.832,0 -1.333,-1.333 -1.333,-3.499 0,-4.832 1.335,-1.335 3.499,-1.335 4.832,0 z" /></g><g
           id="g3162"><polygon
             style="fill:#ffffff"
             id="polygon3164"
             points="175.114,106.834 175.114,142.688 185.326,142.688 185.326,106.834 202.78,106.834 202.78,96.455 157.656,96.455 157.656,106.834 " /></g><g
           id="g3166"><path
             style="fill:#ffffff;fill-rule:evenodd"
             inkscape:connector-curvature="0"
             id="path3168"
             d="m 135.749,133.056 c -7.386,0 -13.391,-6.018 -13.391,-13.416 0,-7.4 6.005,-13.422 13.391,-13.422 3.168,0 6.085,1.112 8.376,2.967 l 6.903,-6.905 c -4.072,-3.612 -9.424,-5.808 -15.279,-5.808 -12.748,0 -23.119,10.392 -23.119,23.167 0,12.773 10.371,23.157 23.119,23.157 5.818,0 11.138,-2.174 15.206,-5.736 l -6.907,-6.905 c -2.283,1.816 -5.166,2.901 -8.299,2.901 z"
             clip-rule="evenodd" /></g><g
           id="g3170"><path
             style="fill:#ffffff;fill-rule:evenodd"
             inkscape:connector-curvature="0"
             id="path3172"
             d="m 82.777,114.251 c -2.993,0 -5.416,2.437 -5.416,5.444 0,3.002 2.424,5.438 5.416,5.438 2.993,0 5.42,-2.435 5.414,-5.442 0.006,-3.003 -2.422,-5.44 -5.414,-5.44 z m 0,9.597 c -2.287,0.006 -4.142,-1.857 -4.142,-4.154 0,-2.297 1.855,-4.158 4.142,-4.158 2.287,0 4.14,1.857 4.14,4.154 0,2.301 -1.853,4.158 -4.14,4.158 z"
             clip-rule="evenodd" /><g
             id="g3174"><path
               style="fill:#ffffff;fill-rule:evenodd"
               inkscape:connector-curvature="0"
               id="path3176"
               d="m 95.99,119.64 c 0,7.398 -6.009,13.416 -13.395,13.416 -7.386,0 -13.391,-6.018 -13.391,-13.416 0,-7.4 6.005,-13.422 13.391,-13.422 7.386,0 13.395,6.022 13.395,13.422 z M 82.596,96.472 c -12.748,0 -23.119,10.392 -23.119,23.167 0,12.773 10.371,23.157 23.119,23.157 12.754,0 23.122,-10.384 23.122,-23.157 0,-12.774 -10.369,-23.167 -23.122,-23.167 z"
               clip-rule="evenodd" /></g><path
             style="fill:#ffffff"
             inkscape:connector-curvature="0"
             id="path3178"
             d="m 82.812,117.006 c 1.483,0 2.687,1.202 2.681,2.685 0.006,1.487 -1.198,2.689 -2.681,2.689 -1.483,0 -2.681,-1.202 -2.681,-2.689 0,-1.483 1.198,-2.685 2.681,-2.685 z" /></g><g
           id="g3180"><g
             id="g3182"><path
               style="fill:#ffffff;fill-rule:evenodd"
               inkscape:connector-curvature="0"
               id="path3184"
               d="m 229.045,96.472 c -12.748,0 -23.118,10.392 -23.118,23.167 0,12.773 10.371,23.157 23.118,23.157 12.748,0 23.123,-10.384 23.123,-23.157 0,-12.774 -10.375,-23.167 -23.123,-23.167 z m 0,36.584 c -7.382,0 -13.391,-6.022 -13.391,-13.416 0,-7.4 6.009,-13.422 13.391,-13.422 7.386,0 13.395,6.022 13.395,13.422 0,7.394 -6.009,13.416 -13.395,13.416 z"
               clip-rule="evenodd" /></g></g></g><g
         id="g3186"><path
           style="fill:#ffffff"
           inkscape:connector-curvature="0"
           id="path3188"
           d="m 385.782,124.983 v 7.727 c -3.444,1.968 -6.783,2.951 -10.019,2.951 -4.426,0 -8.304,-1.663 -11.63,-4.99 -3.327,-3.326 -4.99,-7.178 -4.99,-11.552 0,-4.971 1.656,-9.092 4.97,-12.368 3.314,-3.276 7.468,-4.912 12.465,-4.912 2.977,0 6.044,0.777 9.204,2.33 v 7.534 c -3.393,-2.175 -6.602,-3.262 -9.63,-3.262 -2.796,0 -5.243,0.984 -7.339,2.952 -2.098,1.968 -3.145,4.271 -3.145,6.912 0,2.978 0.983,5.482 2.951,7.514 1.968,2.032 4.375,3.048 7.223,3.048 2.897,-0.002 6.211,-1.296 9.94,-3.884 z" /><path
           style="fill:#ffffff"
           inkscape:connector-curvature="0"
           id="path3190"
           d="m 420.922,102.731 h 6.757 v 32.036 h -6.757 V 128.4 c -3.288,4.841 -7.365,7.261 -12.232,7.261 -4.22,0 -7.825,-1.656 -10.815,-4.97 -2.989,-3.314 -4.485,-7.339 -4.485,-12.077 0,-4.479 1.508,-8.394 4.523,-11.747 3.016,-3.353 6.557,-5.028 10.621,-5.028 2.511,0 4.894,0.687 7.146,2.058 2.251,1.372 4,3.159 5.242,5.359 v -6.525 z m 0.932,16.116 c 0,-2.925 -1.05,-5.43 -3.151,-7.514 -2.1,-2.084 -4.616,-3.127 -7.547,-3.127 -2.852,0 -5.343,1.036 -7.469,3.107 -2.127,2.072 -3.19,4.505 -3.19,7.301 0,3.029 1.037,5.605 3.112,7.727 2.074,2.123 4.59,3.185 7.547,3.185 2.931,0 5.447,-1.055 7.547,-3.165 2.101,-2.11 3.151,-4.615 3.151,-7.514 z" /><path
           style="fill:#ffffff"
           inkscape:connector-curvature="0"
           id="path3192"
           d="m 466.277,84.364 h 6.678 v 50.404 h -6.601 v -6.68 c -3.189,5.048 -7.363,7.573 -12.521,7.573 -4.174,0 -7.752,-1.67 -10.733,-5.01 -2.981,-3.339 -4.472,-7.351 -4.472,-12.037 0,-4.582 1.516,-8.523 4.549,-11.824 3.034,-3.301 6.65,-4.951 10.85,-4.951 2.515,0 4.86,0.698 7.038,2.096 2.177,1.398 3.914,3.224 5.211,5.476 V 84.364 z m 0.776,34.327 c 0,-2.873 -1.05,-5.365 -3.151,-7.475 -2.1,-2.109 -4.603,-3.164 -7.508,-3.164 -3.008,0 -5.556,1.029 -7.644,3.087 -2.088,2.058 -3.131,4.576 -3.131,7.553 0,2.849 1.063,5.34 3.19,7.475 2.126,2.136 4.603,3.204 7.431,3.204 3.008,0 5.563,-1.035 7.663,-3.107 2.1,-2.071 3.15,-4.595 3.15,-7.573 z" /><path
           style="fill:#ffffff"
           inkscape:connector-curvature="0"
           id="path3194"
           d="m 516.874,120.05 h -27.338 c 0.595,3.288 1.948,5.689 4.058,7.203 2.109,1.514 4.407,2.272 6.893,2.272 3.831,0 7.042,-1.593 9.63,-4.777 l 4.931,3.728 c -3.702,4.789 -8.659,7.184 -14.872,7.184 -4.764,0 -8.75,-1.631 -11.96,-4.893 -3.211,-3.262 -4.815,-7.314 -4.815,-12.155 0,-4.53 1.624,-8.459 4.873,-11.785 3.248,-3.326 7.216,-4.99 11.903,-4.99 4.608,0 8.556,1.689 11.844,5.067 3.286,3.38 4.904,7.762 4.853,13.146 z m -26.639,-5.397 h 19.571 c -2.175,-4.4 -5.385,-6.601 -9.63,-6.601 -4.635,0 -7.948,2.2 -9.941,6.601 z" /><path
           style="fill:#ffffff"
           inkscape:connector-curvature="0"
           id="path3196"
           d="m 525.61,134.768 v -32.036 h 6.678 v 4.931 c 1.579,-2.019 3.088,-3.494 4.525,-4.426 1.437,-0.932 3.087,-1.398 4.951,-1.398 2.433,0 4.342,0.531 5.727,1.593 1.385,1.062 2.557,2.756 3.514,5.086 1.69,-2.33 3.32,-4.024 4.893,-5.086 1.573,-1.062 3.398,-1.593 5.477,-1.593 2.548,0 4.744,0.952 6.589,2.853 1.844,1.903 2.768,4.162 2.768,6.777 v 23.299 h -6.757 v -21.552 c 0,-3.546 -1.753,-5.32 -5.259,-5.32 -1.999,0 -3.694,0.907 -5.084,2.719 -1.39,1.812 -2.084,4.051 -2.084,6.718 v 17.435 h -6.757 v -20.659 c 0,-4.194 -1.721,-6.291 -5.164,-6.291 -2.045,0 -3.78,0.854 -5.203,2.563 -1.424,1.709 -2.136,3.819 -2.136,6.329 v 18.057 h -6.678 z" /><path
           style="fill:#ffffff"
           inkscape:connector-curvature="0"
           id="path3198"
           d="m 577.215,102.731 h 7.664 l 11.62,17.405 8.034,-17.405 h 6.969 l -21.641,47.064 h -7.056 l 10.58,-22.916 -16.17,-24.148 z" /></g><g
         id="g3200"><g
           id="g3202"><path
             style="fill:#ffffff"
             inkscape:connector-curvature="0"
             id="path3204"
             d="m 328.919,74.648 c 0,24.599 0,49.197 0,73.796 0,0.866 8.794,4.202 9.573,4.564 0.698,0.324 9.663,3.757 9.663,4.371 0,-24.599 0,-49.197 0,-73.796 0,-0.866 -8.794,-4.202 -9.573,-4.564 -0.699,-0.324 -9.663,-3.757 -9.663,-4.371 l 0,0 z" /></g></g></g></g></svg>